<?xml version="1.0" encoding="utf-8"?>
<!-- Generator: Adobe Illustrator 24.0.0, SVG Export Plug-In . SVG Version: 6.00 Build 0)  -->
<svg version="1.1" id="Layer_1" xmlns="http://www.w3.org/2000/svg" xmlns:xlink="http://www.w3.org/1999/xlink" x="0px" y="0px"
	 viewBox="0 0 65.9 71.2" style="enable-background:new 0 0 65.9 71.2;" xml:space="preserve">
<style type="text/css">
	.st0{fill:none;stroke:#000000;stroke-miterlimit:10;}
	.st1{fill:url(#SVGID_1_);stroke:#000000;stroke-miterlimit:10;}
	.st2{fill:url(#SVGID_2_);}
	.st3{fill:url(#SVGID_3_);}
	.st4{fill:url(#SVGID_4_);}
	.st5{fill:url(#SVGID_5_);}
	.st6{fill:url(#SVGID_6_);}
	.st7{fill:url(#SVGID_7_);}
	.st8{fill:url(#SVGID_8_);}
	.st9{fill:#DD9E19;}
	.st10{fill:url(#SVGID_9_);}
	.st11{fill:url(#SVGID_10_);}
	.st12{fill:url(#SVGID_11_);}
	.st13{fill:url(#SVGID_12_);}
	.st14{fill:url(#SVGID_13_);}
	.st15{fill:url(#SVGID_14_);}
	.st16{fill:#FFCD09;}
	.st17{font-family:'TimesNewRomanPSMT';}
	.st18{font-size:9.6898px;}
</style>
<g>
	<g>
		<g>
			<path class="st9" d="M31.1,3.7c0,0-0.2,4.4,2.6,8.7s3.8,9.1-2.6,14.9c0,0,0.2-6.3-3.6-12.3C27.5,15,22.2,7.3,31.1,3.7z"/>
			<path class="st9" d="M23.5,11.3c0,0-7.5,2.1-3.1,12.4c0,0,4.2,7.1,3.1,11.1c0,0,7.6-3.3,3.7-12.6C27.3,22.1,22.1,13.8,23.5,11.3z
				"/>
			<path class="st9" d="M38.1,17.2c0.8-0.6,20.2,13.6-2.5,22.4c0,0-4.5,1.5-4,5.1c0,0-9.7-3.4-1.2-12.8C35,27.3,40.7,24.6,38.1,17.2
				z"/>
			<path class="st9" d="M49.2,29.5c0,0.6,0.1,1.2,0.1,1.8c0,10.1-7.4,18.3-16.5,18.3s-16.5-8.2-16.5-18.3c0-0.6,0-1.1,0.1-1.7
				c-0.9,2.2-1.4,4.5-1.4,7c0,10.1,7.9,18.3,17.8,18.3s17.8-8.2,17.8-18.3C50.6,34.1,50.1,31.7,49.2,29.5z"/>
		</g>
		<g>
			
				<linearGradient id="SVGID_1_" gradientUnits="userSpaceOnUse" x1="24.6702" y1="87.7436" x2="55.7058" y2="70.5036" gradientTransform="matrix(1 0 0 -1 0 99.7102)">
				<stop  offset="0.479" style="stop-color:#E4AF38"/>
				<stop  offset="0.5905" style="stop-color:#F6E196"/>
				<stop  offset="0.6984" style="stop-color:#E1A31C"/>
			</linearGradient>
			<path style="fill:url(#SVGID_1_);" d="M31.1,3.7c0,0-0.2,4.4,2.6,8.7s3.8,9.1-2.6,14.9c0,0,0.2-6.3-3.6-12.3
				C27.5,15,22.2,7.3,31.1,3.7z"/>
			
				<linearGradient id="SVGID_2_" gradientUnits="userSpaceOnUse" x1="19.7307" y1="78.8514" x2="50.7663" y2="61.6114" gradientTransform="matrix(1 0 0 -1 0 99.7102)">
				<stop  offset="0.479" style="stop-color:#E4AF38"/>
				<stop  offset="0.5905" style="stop-color:#F6E196"/>
				<stop  offset="0.6984" style="stop-color:#E1A31C"/>
			</linearGradient>
			<path class="st2" d="M23.5,11.3c0,0-7.5,2.1-3.1,12.4c0,0,4.2,7.1,3.1,11.1c0,0,7.6-3.3,3.7-12.6C27.3,22.1,22.1,13.8,23.5,11.3z
				"/>
			
				<linearGradient id="SVGID_3_" gradientUnits="userSpaceOnUse" x1="19.0446" y1="77.6162" x2="50.0801" y2="60.3762" gradientTransform="matrix(1 0 0 -1 0 99.7102)">
				<stop  offset="0.479" style="stop-color:#E4AF38"/>
				<stop  offset="0.5905" style="stop-color:#F6E196"/>
				<stop  offset="0.6984" style="stop-color:#E1A31C"/>
			</linearGradient>
			<path class="st3" d="M38.1,17.2c0.8-0.6,20.2,13.6-2.5,22.4c0,0-4.5,1.5-4,5.1c0,0-9.7-3.4-1.2-12.8C35,27.3,40.7,24.6,38.1,17.2
				z"/>
			
				<linearGradient id="SVGID_4_" gradientUnits="userSpaceOnUse" x1="15.1704" y1="70.6419" x2="46.206" y2="53.4019" gradientTransform="matrix(1 0 0 -1 0 99.7102)">
				<stop  offset="0.479" style="stop-color:#E4AF38"/>
				<stop  offset="0.5905" style="stop-color:#F6E196"/>
				<stop  offset="0.6984" style="stop-color:#E1A31C"/>
			</linearGradient>
			<path class="st4" d="M49.2,29.5c0,0.6,0.1,1.2,0.1,1.8c0,10.1-7.4,18.3-16.5,18.3s-16.5-8.2-16.5-18.3c0-0.6,0-1.1,0.1-1.7
				c-0.9,2.2-1.4,4.5-1.4,7c0,10.1,7.9,18.3,17.8,18.3s17.8-8.2,17.8-18.3C50.6,34.1,50.1,31.7,49.2,29.5z"/>
		</g>
	</g>
	<g>
		
			<linearGradient id="SVGID_5_" gradientUnits="userSpaceOnUse" x1="3.1553" y1="41.3965" x2="18.5282" y2="41.3965" gradientTransform="matrix(1 0 0 -1 0 95.7102)">
			<stop  offset="0" style="stop-color:#FFF33B"/>
			<stop  offset="5.950000e-02" style="stop-color:#FFE029"/>
			<stop  offset="0.1303" style="stop-color:#FFD218"/>
			<stop  offset="0.2032" style="stop-color:#FEC90F"/>
			<stop  offset="0.2809" style="stop-color:#FDC70C"/>
			<stop  offset="0.6685" style="stop-color:#FCCE43"/>
			<stop  offset="1" style="stop-color:#E93E3A"/>
		</linearGradient>
		<path class="st5" d="M3.2,54.4l14.9-0.6c0.6,0,0.7,1,0,1L3.2,54.4z"/>
		
			<linearGradient id="SVGID_6_" gradientUnits="userSpaceOnUse" x1="-65.2778" y1="40.882" x2="-49.9049" y2="40.882" gradientTransform="matrix(-1 0 0 -1 -4.3949 95.7102)">
			<stop  offset="0" style="stop-color:#FFF33B"/>
			<stop  offset="5.950000e-02" style="stop-color:#FFE029"/>
			<stop  offset="0.1303" style="stop-color:#FFD218"/>
			<stop  offset="0.2032" style="stop-color:#FEC90F"/>
			<stop  offset="0.2809" style="stop-color:#FDC70C"/>
			<stop  offset="0.6685" style="stop-color:#FCCE43"/>
			<stop  offset="1" style="stop-color:#E93E3A"/>
		</linearGradient>
		<path class="st6" d="M60.9,54.9L46,54.3c-0.6,0-0.7,1,0,1L60.9,54.9z"/>
	</g>
	<text transform="matrix(1 0 0 1 2.4232 64.5268)" class="st16 st17 st18">THE BEACON</text>
</g>
</svg>
